<svg width="153" height="40" viewBox="0 0 153 40" fill="none" xmlns="http://www.w3.org/2000/svg">
<path d="M50.2978 32.3911C48.0671 34.5913 45.3781 35.6914 42.1695 35.6914C38.9609 35.6914 36.2719 34.5913 34.0717 32.3911C31.8716 30.191 30.7715 27.5019 30.7715 24.2934C30.7715 21.0848 31.8716 18.3957 34.0717 16.1956C36.2719 13.9954 38.9609 12.8953 42.1695 12.8953C45.3781 12.8953 48.0671 13.9954 50.2978 16.1956C52.5286 18.3957 53.6286 21.0848 53.6286 24.2934C53.6286 27.5019 52.5286 30.191 50.2978 32.3911ZM38.0137 28.5714C39.1137 29.7021 40.5194 30.2521 42.1695 30.2521C43.8196 30.2521 45.2253 29.7021 46.3559 28.5714C47.4865 27.4408 48.0366 26.0351 48.0366 24.2934C48.0366 22.5516 47.4865 21.1459 46.3559 20.0153C45.2253 18.8847 43.8502 18.3346 42.1695 18.3346C40.4888 18.3346 39.1137 18.8847 38.0137 20.0153C36.9136 21.1459 36.3635 22.5516 36.3635 24.2934C36.3635 26.0351 36.9136 27.4408 38.0137 28.5714Z" fill="black"/>
<path d="M57.5708 35.7219V12.8953H63.1323V35.7219H57.5708Z" fill="black"/>
<path d="M80.214 12.8953C82.5669 12.8953 84.5226 13.6898 86.0505 15.2788C87.5784 16.8678 88.3729 19.0374 88.3729 21.8487V35.7219H82.8114V22.521C82.8114 21.0848 82.4141 19.9847 81.6502 19.2208C80.8862 18.4568 79.8473 18.0902 78.5333 18.0902C77.2193 18.0902 75.9359 18.5485 75.0803 19.4347C74.2247 20.3209 73.7968 21.6654 73.7968 23.4377V35.7219H68.2354V12.8953H73.7968V15.9206C75.1414 13.9037 77.2804 12.8953 80.214 12.8953Z" fill="black"/>
<path d="M93.1396 35.6914V3.57525H98.7011V35.6914H93.1396Z" fill="black"/>
<path d="M120.183 12.987H125.745V35.6303H120.183V32.5439C118.503 34.6524 116.18 35.6914 113.155 35.6914C110.13 35.6914 107.808 34.5913 105.76 32.3911C103.713 30.191 102.674 27.5019 102.674 24.2934C102.674 21.0848 103.713 18.3957 105.76 16.1956C107.808 13.9954 110.283 12.8953 113.155 12.8953C116.028 12.8953 118.533 13.9343 120.183 16.0428V12.9565V12.987ZM109.916 28.6937C111.047 29.8243 112.452 30.4049 114.194 30.4049C115.936 30.4049 117.342 29.8243 118.503 28.6937C119.633 27.563 120.214 26.0963 120.214 24.3239C120.214 22.5516 119.633 21.0848 118.503 19.9542C117.372 18.8235 115.936 18.2429 114.194 18.2429C112.452 18.2429 111.047 18.8235 109.916 19.9542C108.785 21.0848 108.235 22.5516 108.235 24.3239C108.235 26.0963 108.785 27.563 109.916 28.6937Z" fill="black"/>
<path d="M147.227 12.987H152.788V35.6303H147.227V32.5439C145.546 34.6524 143.224 35.6914 140.199 35.6914C137.173 35.6914 134.851 34.5913 132.804 32.3911C130.756 30.191 129.717 27.5019 129.717 24.2934C129.717 21.0848 130.756 18.3957 132.804 16.1956C134.851 13.9954 137.326 12.8953 140.199 12.8953C143.071 12.8953 145.577 13.9343 147.227 16.0428V12.9565V12.987ZM136.929 28.6937C138.06 29.8243 139.465 30.4049 141.207 30.4049C142.949 30.4049 144.354 29.8243 145.516 28.6937C146.646 27.563 147.227 26.0963 147.227 24.3239C147.227 22.5516 146.646 21.0848 145.516 19.9542C144.385 18.8235 142.949 18.2429 141.207 18.2429C139.465 18.2429 138.06 18.8235 136.929 19.9542C135.798 21.0848 135.248 22.5516 135.248 24.3239C135.248 26.0963 135.798 27.563 136.929 28.6937Z" fill="black"/>
<path d="M15.7066 35.7219C11.1536 35.7219 7.39496 34.2246 4.43086 31.1994C1.46677 28.1742 0 24.4461 0 20.0153C0 15.5844 1.46677 11.8258 4.43086 8.80061C7.39496 5.80596 11.1536 4.27808 15.7066 4.27808C20.2597 4.27808 20.9626 4.91979 23.285 6.20321C25.6073 7.48663 27.4102 9.22842 28.6937 11.398L23.56 14.3621C22.8266 13.0176 21.7571 11.9481 20.3514 11.1841C18.9763 10.4202 17.4179 10.0535 15.6761 10.0535C12.7426 10.0535 10.3591 10.9702 8.58671 12.8037C6.78381 14.6371 5.89763 17.0206 5.89763 19.9847C5.89763 22.9488 6.78381 25.2712 8.58671 27.1047C10.3896 28.9381 12.7426 29.8549 15.6761 29.8549C18.6096 29.8549 18.9763 29.4882 20.3514 28.7242C21.7571 27.9603 22.796 26.9213 23.5294 25.6073L28.6631 28.5714C27.3797 30.7716 25.5768 32.4828 23.2544 33.7662C20.9626 35.0497 18.4263 35.6914 15.6455 35.6914L15.7066 35.7219Z" fill="#F16522"/>
<path d="M13.2316 0H9.59521V10.1146H13.2316V0Z" fill="#F16522"/>
<path d="M21.7877 0H18.1514V10.1146H21.7877V0Z" fill="#F16522"/>
<path d="M13.2316 29.8854H9.59521V40H13.2316V29.8854Z" fill="#F16522"/>
<path d="M21.7877 29.8854H18.1514V40H21.7877V29.8854Z" fill="#F16522"/>
<path d="M60.3211 11.0313C59.4044 11.0313 58.6099 10.6952 57.9376 10.0229C57.2653 9.35065 56.9292 8.55615 56.9292 7.63942C56.9292 6.72269 57.2653 5.89764 57.9376 5.22537C58.6099 4.52254 59.4044 4.18641 60.3211 4.18641C61.2378 4.18641 62.0934 4.52254 62.7657 5.22537C63.438 5.92819 63.7741 6.72269 63.7741 7.63942C63.7741 8.55615 63.438 9.35065 62.7657 10.0229C62.0934 10.6952 61.2684 11.0313 60.3211 11.0313Z" fill="black"/>
</svg>
