<?xml version="1.0" encoding="UTF-8"?>
<!DOCTYPE svg PUBLIC "-//W3C//DTD SVG 1.1//EN" "http://www.w3.org/Graphics/SVG/1.1/DTD/svg11.dtd">
<!-- Creator: CorelDRAW -->
<svg xmlns="http://www.w3.org/2000/svg" xml:space="preserve" width="24.167in" height="5.67735in" version="1.1" style="shape-rendering:geometricPrecision; text-rendering:geometricPrecision; image-rendering:optimizeQuality; fill-rule:evenodd; clip-rule:evenodd"
viewBox="0 0 23912.61 5617.6"
 xmlns:xlink="http://www.w3.org/1999/xlink"
 xmlns:xodm="http://www.corel.com/coreldraw/odm/2003">
 <defs>
  <style type="text/css">
   <![CDATA[
    .fil1 {fill:#EF7F1A}
    .fil0 {fill:#EF7F1A;fill-rule:nonzero}
   ]]>
  </style>
 </defs>
 <g id="Layer_x0020_1">
  <metadata id="CorelCorpID_0Corel-Layer"/>
  <g id="_2382182573984">
   <path class="fil0" d="M-0 2830c0,-415.59 93.81,-787.81 281.43,-1116.65 187.62,-328.84 443.83,-585.05 768.64,-768.64 324.8,-183.59 688.95,-275.38 1092.44,-275.38 472.08,0 885.65,121.05 1240.72,363.14 355.07,242.09 603.21,576.98 744.43,1004.68l-974.41 0c-96.84,-201.74 -233.01,-353.05 -408.53,-453.92 -175.52,-100.87 -378.27,-151.31 -608.25,-151.31 -246.13,0 -465.02,57.5 -656.67,172.49 -191.65,114.99 -340.94,277.4 -447.87,487.21 -106.92,209.81 -160.38,455.94 -160.38,738.38 0,278.4 53.46,523.52 160.38,735.35 106.93,211.83 256.22,375.24 447.87,490.23 191.65,114.99 410.55,172.49 656.67,172.49 229.99,0 432.74,-51.44 608.25,-154.33 175.51,-102.89 311.69,-255.2 408.53,-456.95l974.41 0c-141.22,431.73 -388.35,767.63 -741.4,1007.71 -353.05,240.07 -767.63,360.11 -1243.75,360.11 -403.48,0 -767.63,-91.8 -1092.44,-275.38 -324.8,-183.59 -581.02,-438.79 -768.64,-765.62 -187.62,-326.82 -281.43,-698.03 -281.43,-1113.62z"/>
   <path class="fil0" d="M6282.31 5002.77c-322.79,0 -613.3,-71.62 -871.53,-214.86 -258.23,-143.24 -460.98,-345.99 -608.25,-608.25 -147.27,-262.27 -220.91,-564.88 -220.91,-907.84 0,-342.96 75.66,-645.57 226.96,-907.84 151.3,-262.27 358.09,-465.02 620.36,-608.25 262.27,-143.24 554.79,-214.86 877.58,-214.86 322.79,0 615.32,71.62 877.58,214.86 262.27,143.24 469.05,345.99 620.36,608.25 151.31,262.27 226.96,564.88 226.96,907.84 0,342.96 -77.67,645.58 -233.01,907.84 -155.34,262.27 -365.15,465.02 -629.43,608.25 -264.28,143.24 -559.84,214.86 -886.66,214.86zm0 -738.38c153.32,0 297.57,-37.32 432.74,-111.97 135.17,-74.65 243.1,-186.61 323.8,-335.9 80.7,-149.29 121.04,-330.86 121.04,-544.71 0,-318.75 -83.72,-563.87 -251.17,-735.35 -167.45,-171.48 -372.22,-257.22 -614.31,-257.22 -242.09,0 -444.84,85.74 -608.25,257.22 -163.41,171.48 -245.12,416.6 -245.12,735.35 0,318.76 79.69,563.87 239.06,735.35 159.38,171.48 360.11,257.22 602.2,257.22z"/>
   <path class="fil0" d="M9072.4 1195.89c-149.29,0 -273.36,-47.41 -372.21,-142.23 -98.85,-94.82 -148.28,-212.84 -148.28,-354.06 0,-141.22 49.43,-259.24 148.28,-354.06 98.85,-94.82 222.92,-142.23 372.21,-142.23 149.29,0 273.36,47.41 372.22,142.23 98.85,94.82 148.28,212.84 148.28,354.06 0,141.22 -49.43,259.24 -148.28,354.06 -98.85,94.82 -222.93,142.23 -372.22,142.23zm417.61 399.45l0 3352.97 -847.32 0 0 -3352.97 847.32 0z"/>
   <path class="fil0" d="M12364.81 1546.92c399.45,0 722.24,126.09 968.37,378.27 246.13,252.18 369.19,604.22 369.19,1056.12l0 1966.99 -847.32 0 0 -1852c0,-266.3 -66.58,-471.07 -199.72,-614.31 -133.15,-143.24 -314.72,-214.86 -544.71,-214.86 -234.02,0 -418.62,71.62 -553.78,214.86 -135.17,143.24 -202.75,348.01 -202.75,614.31l0 1852 -847.32 0 0 -3352.97 847.32 0 0 417.61c112.98,-145.25 257.22,-259.24 432.74,-341.95 175.52,-82.71 368.18,-124.07 577.99,-124.07z"/>
   <polygon class="fil0" points="15505.98,469.61 15505.98,4948.3 14658.67,4948.3 14658.67,469.61 "/>
   <path class="fil0" d="M16304.86 3259.71c0,-338.93 67.58,-639.52 202.75,-901.79 135.17,-262.27 318.76,-464.01 550.76,-605.23 232,-141.22 491.24,-211.83 777.72,-211.83 250.16,0 469.05,50.44 656.67,151.31 187.62,100.87 337.92,227.97 450.9,381.29l0 -478.13 853.37 0 0 3352.97 -853.37 0 0 -490.23c-108.94,157.36 -259.24,287.48 -450.9,390.37 -191.65,102.89 -412.56,154.33 -662.72,154.33 -282.44,0 -539.66,-72.63 -771.67,-217.88 -232,-145.25 -415.59,-350.02 -550.76,-614.31 -135.16,-264.28 -202.75,-567.9 -202.75,-910.87zm2638.79 12.1c0,-205.78 -40.35,-382.3 -121.05,-529.57 -80.7,-147.28 -189.64,-260.25 -326.82,-338.93 -137.18,-78.68 -284.45,-118.02 -441.82,-118.02 -157.36,0 -302.61,38.33 -435.76,114.99 -133.15,76.66 -241.09,188.63 -323.8,335.9 -82.71,147.27 -124.07,321.78 -124.07,523.52 0,201.74 41.36,378.27 124.07,529.58 82.71,151.3 191.66,267.31 326.83,348 135.16,80.7 279.41,121.05 432.74,121.05 157.36,0 304.63,-39.34 441.82,-118.02 137.19,-78.68 246.13,-191.65 326.82,-338.93 80.7,-147.27 121.05,-323.8 121.05,-529.58z"/>
   <path class="fil0" d="M20420.45 3259.71c0,-338.93 67.58,-639.52 202.75,-901.79 135.17,-262.27 318.76,-464.01 550.76,-605.23 232,-141.22 491.24,-211.83 777.72,-211.83 250.16,0 469.05,50.44 656.67,151.31 187.62,100.87 337.92,227.97 450.9,381.29l0 -478.13 853.37 0 0 3352.97 -853.37 0 0 -490.23c-108.94,157.36 -259.24,287.48 -450.9,390.37 -191.65,102.89 -412.56,154.33 -662.72,154.33 -282.44,0 -539.66,-72.63 -771.67,-217.88 -232,-145.25 -415.59,-350.02 -550.76,-614.31 -135.16,-264.28 -202.75,-567.9 -202.75,-910.87zm2638.79 12.1c0,-205.78 -40.35,-382.3 -121.05,-529.57 -80.7,-147.28 -189.64,-260.25 -326.82,-338.93 -137.18,-78.68 -284.45,-118.02 -441.82,-118.02 -157.36,0 -302.61,38.33 -435.76,114.99 -133.15,76.66 -241.09,188.63 -323.8,335.9 -82.71,147.27 -124.07,321.78 -124.07,523.52 0,201.74 41.36,378.27 124.07,529.58 82.71,151.3 191.66,267.31 326.83,348 135.16,80.7 279.41,121.05 432.74,121.05 157.36,0 304.63,-39.34 441.82,-118.02 137.19,-78.68 246.13,-191.65 326.82,-338.93 80.7,-147.27 121.05,-323.8 121.05,-529.58z"/>
   <path class="fil1" d="M1925.31 4975.39l0 642.2 -461.28 0 0 -730.49c147.11,45.04 300.8,74.49 461.28,88.29z"/>
   <path class="fil1" d="M1464.03 0l461.28 0 0 678.52c-160.48,13.8 -314.17,43.32 -461.28,88.36l0 -766.87z"/>
   <path class="fil1" d="M2663.59 4931.5l0 686.1 -461.28 0 0 -633.63c160.98,-3.43 314.74,-20.95 461.28,-52.47z"/>
   <path class="fil1" d="M2202.31 0l461.28 0 0 723.56c-146.83,-32.17 -300.59,-50.04 -461.28,-53.61l0 -669.94z"/>
  </g>
 </g>
</svg>
