<svg width="153" height="41" viewBox="0 0 153 41" fill="none" xmlns="http://www.w3.org/2000/svg">
<path d="M50.3674 32.4359C48.1336 34.6391 45.4408 35.7407 42.2278 35.7407C39.0148 35.7407 36.322 34.6391 34.1188 32.4359C31.9156 30.2327 30.814 27.5399 30.814 24.3269C30.814 21.1139 31.9156 18.4211 34.1188 16.2179C36.322 14.0147 39.0148 12.9131 42.2278 12.9131C45.4408 12.9131 48.1336 14.0147 50.3674 16.2179C52.6012 18.4211 53.7028 21.1139 53.7028 24.3269C53.7028 27.5399 52.6012 30.2327 50.3674 32.4359ZM38.0662 28.6109C39.1678 29.7431 40.5754 30.2939 42.2278 30.2939C43.8802 30.2939 45.2878 29.7431 46.42 28.6109C47.5522 27.4787 48.103 26.0711 48.103 24.3269C48.103 22.5827 47.5522 21.1751 46.42 20.0429C45.2878 18.9107 43.9108 18.3599 42.2278 18.3599C40.5448 18.3599 39.1678 18.9107 38.0662 20.0429C36.9646 21.1751 36.4138 22.5827 36.4138 24.3269C36.4138 26.0711 36.9646 27.4787 38.0662 28.6109Z" fill="white"/>
<path d="M57.6504 35.7713V12.9131H63.2196V35.7713H57.6504Z" fill="white"/>
<path d="M80.3248 12.9131C82.681 12.9131 84.6394 13.7087 86.1694 15.2999C87.6994 16.8911 88.495 19.0637 88.495 21.8789V35.7713H82.9258V22.5521C82.9258 21.1139 82.528 20.0123 81.763 19.2473C80.998 18.4823 79.9576 18.1151 78.6418 18.1151C77.326 18.1151 76.0408 18.5741 75.184 19.4615C74.3272 20.3489 73.8988 21.6953 73.8988 23.4701V35.7713H68.3296V12.9131H73.8988V15.9425C75.2452 13.9229 77.3872 12.9131 80.3248 12.9131Z" fill="white"/>
<path d="M93.269 35.7407V3.58008H98.8382V35.7407H93.269Z" fill="white"/>
<path d="M120.35 13.0049H125.919V35.6795H120.35V32.5889C118.667 34.7003 116.341 35.7407 113.312 35.7407C110.282 35.7407 107.957 34.6391 105.907 32.4359C103.856 30.2327 102.816 27.5399 102.816 24.3269C102.816 21.1139 103.856 18.4211 105.907 16.2179C107.957 14.0147 110.435 12.9131 113.312 12.9131C116.188 12.9131 118.697 13.9535 120.35 16.0649V12.9743V13.0049ZM110.068 28.7333C111.2 29.8655 112.608 30.4469 114.352 30.4469C116.096 30.4469 117.504 29.8655 118.667 28.7333C119.799 27.6011 120.38 26.1323 120.38 24.3575C120.38 22.5827 119.799 21.1139 118.667 19.9817C117.535 18.8495 116.096 18.2681 114.352 18.2681C112.608 18.2681 111.2 18.8495 110.068 19.9817C108.936 21.1139 108.385 22.5827 108.385 24.3575C108.385 26.1323 108.936 27.6011 110.068 28.7333Z" fill="white"/>
<path d="M147.431 13.0049H153V35.6795H147.431V32.5889C145.748 34.7003 143.422 35.7407 140.393 35.7407C137.363 35.7407 135.038 34.6391 132.988 32.4359C130.937 30.2327 129.897 27.5399 129.897 24.3269C129.897 21.1139 130.937 18.4211 132.988 16.2179C135.038 14.0147 137.516 12.9131 140.393 12.9131C143.269 12.9131 145.778 13.9535 147.431 16.0649V12.9743V13.0049ZM137.119 28.7333C138.251 29.8655 139.658 30.4469 141.403 30.4469C143.147 30.4469 144.554 29.8655 145.717 28.7333C146.849 27.6011 147.431 26.1323 147.431 24.3575C147.431 22.5827 146.849 21.1139 145.717 19.9817C144.585 18.8495 143.147 18.2681 141.403 18.2681C139.658 18.2681 138.251 18.8495 137.119 19.9817C135.986 21.1139 135.436 22.5827 135.436 24.3575C135.436 26.1323 135.986 27.6011 137.119 28.7333Z" fill="white"/>
<path d="M15.7284 35.7714C11.169 35.7714 7.4052 34.2719 4.437 31.2425C1.4688 28.2131 0 24.4799 0 20.0429C0 15.6059 1.4688 11.8421 4.437 8.81274C7.4052 5.81394 11.169 4.28394 15.7284 4.28394C20.2878 4.28394 20.9916 4.92654 23.3172 6.21174C25.6428 7.49694 27.4482 9.24114 28.7334 11.4137L23.5926 14.3819C22.8582 13.0355 21.7872 11.9645 20.3796 11.1995C19.0026 10.4345 17.442 10.0673 15.6978 10.0673C12.7602 10.0673 10.3734 10.9853 8.59861 12.8213C6.7932 14.6573 5.9058 17.0441 5.9058 20.0123C5.9058 22.9805 6.7932 25.3061 8.59861 27.1421C10.404 28.9781 12.7602 29.8961 15.6978 29.8961C18.6354 29.8961 19.0026 29.5289 20.3796 28.7639C21.7872 27.9989 22.8276 26.9585 23.562 25.6427L28.7028 28.6109C27.4176 30.8141 25.6122 32.5277 23.2866 33.813C20.9916 35.0982 18.4518 35.7408 15.6672 35.7408L15.7284 35.7714Z" fill="#F16522"/>
<path d="M13.2498 0H9.6084V10.1286H13.2498V0Z" fill="#F16522"/>
<path d="M21.8177 0H18.1763V10.1286H21.8177V0Z" fill="#F16522"/>
<path d="M13.2498 29.9268H9.6084V40.0554H13.2498V29.9268Z" fill="#F16522"/>
<path d="M21.8177 29.9268H18.1763V40.0554H21.8177V29.9268Z" fill="#F16522"/>
<path d="M60.4044 11.0465C59.4864 11.0465 58.6908 10.7099 58.0176 10.0367C57.3444 9.36354 57.0078 8.56794 57.0078 7.64994C57.0078 6.73194 57.3444 5.90574 58.0176 5.23254C58.6908 4.52874 59.4864 4.19214 60.4044 4.19214C61.3224 4.19214 62.1792 4.52874 62.8524 5.23254C63.5256 5.93634 63.8622 6.73194 63.8622 7.64994C63.8622 8.56794 63.5256 9.36354 62.8524 10.0367C62.1792 10.7099 61.353 11.0465 60.4044 11.0465Z" fill="white"/>
</svg>
